<?xml version="1.0" encoding="utf-8"?>
<!-- Generator: Adobe Illustrator 19.2.1, SVG Export Plug-In . SVG Version: 6.00 Build 0)  -->
<svg version="1.1" id="Layer_1" xmlns="http://www.w3.org/2000/svg" xmlns:xlink="http://www.w3.org/1999/xlink" x="0px" y="0px"
	 viewBox="0 0 73.1 173" style="enable-background:new 0 0 73.1 173;" xml:space="preserve">
<style type="text/css">
	.st0{fill:none;stroke:#ED1C24;stroke-width:5.7444;stroke-miterlimit:10;}
	.st1{stroke:#000000;stroke-width:1.4361;stroke-miterlimit:10;}
	.st2{stroke:#000000;stroke-width:1.2496;stroke-miterlimit:10;}
</style>
<g>
	<rect x="-92.3" y="2.9" class="st0" width="67.4" height="167.2"/>
</g>
<polygon class="st1" points="-79.3,160.5 -37.9,101.4 -79.3,101.4 -79.3,109 -53.1,109 -79.3,145.5 "/>
<polygon class="st1" points="-37.9,35.3 -79.4,94.4 -37.9,94.4 -37.9,86.8 -64.2,86.8 -37.9,50.3 "/>
<polygon class="st1" points="-79.3,17.8 -79.3,76.9 -37.9,17.8 -48.2,17.8 -71.6,54 -71.6,17.8 "/>
<g>
	<rect x="2.9" y="2.9" class="st0" width="67.4" height="167.2"/>
</g>
<polygon class="st1" points="16.3,79.5 57.7,20.4 16.3,20.4 16.3,28 42.5,28 16.3,64.5 "/>
<polygon class="st1" points="56.8,101.4 56.8,42.4 15.4,101.4 25.7,101.4 49.1,65.3 49.1,101.4 "/>
<polygon class="st2" points="30.6,147.6 56.8,120 56.8,108.6 15.4,153.4 25.3,153.4 "/>
</svg>
